{"title":"Will.I.Am Ft. Miley Cyrus, French Montana &amp; Wiz Khalifa - Fe","uid":9295449,"size":51599114,"categoryP":"video","categoryS":"music_videos","magnet":"?xt=urn:btih:351e57e05b1903cf547741306fcac96610cc7a67&amp;dn=Will.I.Am+Ft.+Miley+Cyrus%2C+French+Montana+%26amp%3B+Wiz+Khalifa+-+Fe&amp;tr=udp%3A%2F%2Ftracker.openbittorrent.com%3A80&amp;tr=udp%3A%2F%2Fopen.demonii.com%3A1337&amp;tr=udp%3A%2F%2Ftracker.coppersurfer.tk%3A6969&amp;tr=udp%3A%2F%2Fexodus.desync.com%3A6969","seeders":5,"leechers":0,"uploader":"Sbyky","files":1,"time":1386148355,"description":"\n\nGeneral\nComplete name                            : Will.I.Am Ft. Miley Cyrus, French Montana &amp; Wiz Khalifa - Feelin' Myself [Music Video] 720p [Sbyky].MP4\nFormat                                   : MPEG-4\nFormat profile                           : Base Media\nCodec ID                                 : isom\nFile size                                : 49.2 MiB\nDuration                                 : 4mn 11s\nOverall bit rate mode                    : Variable\nOverall bit rate                         : 1 645 Kbps\nEncoded date                             : UTC 2013-11-27 02:55:20\nTagged date                              : UTC 2013-11-27 02:55:20\n\nVideo\nID                                       : 1\nFormat                                   : AVC\nFormat/Info                              : Advanced Video Codec\nFormat profile                           : &lt;a class=&quot;__cf_email__&quot; href=&quot;/cdn-cgi/l/email-protection&quot; data-cfemail=&quot;793418101739354a5748&quot;&gt;[email&amp;#160;protected]&lt;/a&gt;&lt;script cf-hash='f9e31' type=&quot;text/javascript&quot;&gt;\n/* &lt;![CDATA[ */!function(){try{var t=&quot;currentScript&quot;in document?document.currentScript:function(){for(var t=document.getElementsByTagName(&quot;script&quot;),e=t.length;e--;)if(t[e].getAttribute(&quot;cf-hash&quot;))return t[e]}();if(t&amp;&amp;t.previousSibling){var e,r,n,i,c=t.previousSibling,a=c.getAttribute(&quot;data-cfemail&quot;);if(a){for(e=&quot;&quot;,r=parseInt(a.substr(0,2),16),n=2;a.length-n;n+=2)i=parseInt(a.substr(n,2),16)^r,e+=String.fromCharCode(i);e=document.createTextNode(e),c.parentNode.replaceChild(e,c)}}}catch(u){}}();/* ]]&gt; */&lt;/script&gt;\nFormat settings, CABAC                   : Yes\nFormat settings, ReFrames                : 3 frames\nCodec ID                                 : avc1\nCodec ID/Info                            : Advanced Video Coding\nDuration                                 : 4mn 10s\nBit rate                                 : 1 388 Kbps\nWidth                                    : 1 280 pixels\nHeight                                   : 720 pixels\nDisplay aspect ratio                     : 16:9\nFrame rate mode                          : Constant\nFrame rate                               : 23.976 fps\nColor space                              : YUV\nChroma subsampling                       : 4:2:0\nBit depth                                : 8 bits\nScan type                                : Progressive\nBits/(Pixel*Frame)                       : 0.063\nStream size                              : 41.5 MiB (84%)\nEncoded date                             : UTC 2013-11-27 02:55:20\nTagged date                              : UTC 2013-11-27 02:55:20\n\nAudio\nID                                       : 2\nFormat                                   : AAC\nFormat/Info                              : Advanced Audio Codec\nFormat profile                           : LC\nCodec ID                                 : 40\nDuration                                 : 4mn 11s\nBit rate mode                            : Variable\nBit rate                                 : 254 Kbps\nChannel(s)                               : 2 channels\nChannel positions                        : Front: L R\nSampling rate                            : 44.1 KHz\nCompression mode                         : Lossy\nDelay relative to video                  : 42ms\nStream size                              : 7.59 MiB (15%)\nEncoded date                             : UTC 2013-11-27 02:55:06\nTagged date                              : UTC 2013-11-27 02:55:06\n\nShared By Sbyky\n","torrent":{"xt":"urn:btih:351e57e05b1903cf547741306fcac96610cc7a67","amp;dn":"Will.I.Am+Ft.+Miley+Cyrus%2C+French+Montana+%26amp%3B+Wiz+Khalifa+-+Fe","amp;tr":["udp%3A%2F%2Ftracker.openbittorrent.com%3A80","udp%3A%2F%2Fopen.demonii.com%3A1337","udp%3A%2F%2Ftracker.coppersurfer.tk%3A6969","udp%3A%2F%2Fexodus.desync.com%3A6969"],"infoHash":"351e57e05b1903cf547741306fcac96610cc7a67","infoHashBuffer":{"type":"Buffer","data":[53,30,87,224,91,25,3,207,84,119,65,48,111,202,201,102,16,204,122,103]},"announce":[],"urlList":[]}}